<?xml version="1.0" encoding="utf-8"?>
<!-- Generator: Adobe Illustrator 18.1.1, SVG Export Plug-In . SVG Version: 6.00 Build 0)  -->
<svg version="1.1" id="Layer_1" xmlns="http://www.w3.org/2000/svg" xmlns:xlink="http://www.w3.org/1999/xlink" x="0px" y="0px"
	 width="300px" height="300px" viewBox="0 0 300 300" enable-background="new 0 0 300 300" xml:space="preserve">
<ellipse fill="#CCCCFF" stroke="#FF6666" stroke-width="9" stroke-miterlimit="10" cx="150.9" cy="149.3" rx="141" ry="143.9"/>
<text transform="matrix(1 0 0 1 82.0166 146.9423)" fill="#FF6666" font-family="'MyriadPro-Regular'" font-size="146.8348">f</text>
<text transform="matrix(1 0 0 1 82.0166 146.9423)" fill="none" stroke="#9999FF" stroke-width="2" stroke-miterlimit="10" font-family="'MyriadPro-Regular'" font-size="146.8348">f</text>
<text transform="matrix(1 0 0 1 112.8887 111.6899)" fill="#FF6666" font-family="'MyriadPro-Regular'" font-size="73.9865">u</text>
<text transform="matrix(1 0 0 1 112.8887 111.6899)" fill="none" stroke="#9999FF" stroke-width="2" stroke-miterlimit="10" font-family="'MyriadPro-Regular'" font-size="73.9865">u</text>
<text transform="matrix(1 0 0 1 131.4385 172.1767)" fill="#FF6666" font-family="'MyriadPro-Regular'" font-size="93.3369">5</text>
<text transform="matrix(1 0 0 1 131.4385 172.1767)" fill="none" stroke="#9999FF" stroke-width="2" stroke-miterlimit="10" font-family="'MyriadPro-Regular'" font-size="93.3369">5</text>
<text transform="matrix(1 0 0 1 154.2373 118.3969)" fill="#FF6666" font-family="'MyriadPro-Regular'" font-size="110.4107">P</text>
<text transform="matrix(1 0 0 1 154.4596 118.423)" fill="none" stroke="#9999FF" stroke-miterlimit="10" font-family="'MyriadPro-Regular'" font-size="110.4107">P</text>
<g>
	<g>
		<path fill="#FF6666" d="M206.6,160.2c14.8,2.5,25.1,15.7,25.6,30.4c0.5,16-9,30.5-22.9,38.1c-2.7,1.5-0.3,5.6,2.4,4.1
			c15.6-8.5,26.3-25.4,25.2-43.5c-1-16.2-12.6-30.9-29-33.7C204.8,155.1,203.5,159.7,206.6,160.2L206.6,160.2z"/>
	</g>
</g>
<g>
	<g>
		<path fill="#FF6666" d="M92.2,158c-16.4,2.8-27.9,17.5-29,33.7c-1.2,18.1,9.6,35,25.2,43.5c2.7,1.5,5.1-2.6,2.4-4.1
			c-13.8-7.6-23.4-22-22.9-38.1c0.5-14.8,10.8-27.9,25.6-30.4C96.5,162.1,95.2,157.5,92.2,158L92.2,158z"/>
	</g>
</g>
<g>
	<g>
		<path fill="#FF6666" d="M107.2,177.6c-0.1,7,5.6,12.6,12.7,12.2c3.1-0.2,3.1-4.9,0-4.8c-4.5,0.2-7.9-3-7.9-7.5
			C112,174.6,107.2,174.6,107.2,177.6L107.2,177.6z"/>
	</g>
</g>
<g>
	<g>
		<path fill="#FF6666" d="M197.1,177.6c0,4.5-3.4,7.7-7.9,7.5c-3.1-0.2-3.1,4.6,0,4.8c7,0.4,12.7-5.2,12.7-12.2
			C201.9,174.6,197.1,174.6,197.1,177.6L197.1,177.6z"/>
	</g>
</g>
<g>
	<g>
		<path fill="#FF6666" d="M116.5,201.2c-7.3,1.6-11.5,11.6-12.6,18.2c-0.5,3,4.1,4.3,4.6,1.3c0.9-4.8,3.8-13.6,9.3-14.9
			C120.7,205.1,119.4,200.5,116.5,201.2L116.5,201.2z"/>
	</g>
</g>
<g>
	<g>
		<path fill="#FF6666" d="M188.6,208.1c5.5,1.3,8.4,10,9.3,14.9c0.5,3,5.1,1.7,4.6-1.3c-1.2-6.5-5.3-16.5-12.6-18.2
			C186.9,202.8,185.6,207.4,188.6,208.1L188.6,208.1z"/>
	</g>
</g>
<ellipse cx="184" cy="69" rx="4.7" ry="4.5"/>
<g>
	<g>
		<path fill="#FF6666" d="M178.9,196.2c-0.5,10.6-16.9,13.2-24.8,13.2c-7.5,0-24.8-2.7-24.8-13.2s17.3-13.2,24.8-13.2
			C162,183,178.4,185.7,178.9,196.2c0.1,3.1,4.9,3.1,4.8,0c-0.4-9.8-10.8-15-19.2-16.9c-10.9-2.4-24.5-1.4-33.6,5.7
			c-6.6,5.2-8.4,13.6-2.5,20.1c7.6,8.3,21.2,10,31.7,8.7c9.6-1.2,23.1-6.1,23.6-17.6C183.8,193.2,179,193.2,178.9,196.2z"/>
	</g>
</g>
<g>
	<g>
		<path fill="#FF6666" d="M127.2,196.5c3.6,2.3,7.4,4.5,11.8,4.4c5.1-0.2,10.1-2.1,15.2-2.5c5.1-0.4,9.7,1,14.7,1.6
			c4.1,0.5,7.9-0.3,11.6-2.1c2.8-1.4,0.3-5.5-2.4-4.1c-7.5,3.7-15.9-0.7-23.9-0.1c-3.6,0.3-7.2,1-10.8,1.7c-2.8,0.6-5.4,1.1-8.2,0.1
			c-2.1-0.7-3.9-1.9-5.7-3.1C127,190.7,124.6,194.8,127.2,196.5L127.2,196.5z"/>
	</g>
</g>
<polygon fill="#9999FF" points="161.8,115.1 163.3,115.1 163.3,115.1 "/>
<rect x="161" y="113.5" fill="#9999FF" width="3.2" height="1.5"/>
<rect x="161" y="112.8" fill="#9999FF" width="2.6" height="1.3"/>
<rect x="160.3" y="112.9" fill="#FF6666" width="4.5" height="2.5"/>
<rect x="160.7" y="112.5" fill="#FF6666" width="3.6" height="1.1"/>
<rect x="161.8" y="112.5" fill="#FF6666" width="3" height="0.9"/>
<rect x="147.7" y="114.8" fill="#FF6666" width="16.3" height="3.1"/>
<rect x="143.9" y="110.3" fill="#FF6666" width="2.8" height="3.4"/>
<rect x="145.2" y="110.7" transform="matrix(-0.9994 3.479937e-02 -3.479937e-02 -0.9994 294.5984 218.0731)" fill="#FF6666" width="0.4" height="1.8"/>
<rect x="146.5" y="110.4" transform="matrix(-0.9962 8.690435e-02 -8.690435e-02 -0.9962 303.2268 209.8904)" fill="#FF6666" width="1.1" height="2.3"/>
<polygon fill="#FF6666" points="147.3,111.9 147.4,111.9 147.4,111.9 "/>
<rect x="143.7" y="110.8" fill="#FF6666" width="0.6" height="1.8"/>
<rect x="143.7" y="110.2" fill="#FF6666" width="0.4" height="0.8"/>
<rect x="116.8" y="76.8" fill="#FF6666" width="3.5" height="7.9"/>
<rect x="172.8" y="118.7" fill="#9999FF" width="0.2" height="0.7"/>
</svg>
