<?xml version="1.0" encoding="utf-8"?>
<!-- Generator: Adobe Illustrator 18.1.1, SVG Export Plug-In . SVG Version: 6.00 Build 0)  -->
<svg version="1.1" xmlns="http://www.w3.org/2000/svg" xmlns:xlink="http://www.w3.org/1999/xlink" x="0px" y="0px" width="100px"
	 height="100px" viewBox="0 0 100 100" enable-background="new 0 0 100 100" xml:space="preserve">
<g id="Layer_1">
</g>
<g id="Layer_2">
	<g>
		<g>
			<g enable-background="new    ">
				<g enable-background="new    ">
					<defs>
						<path id="SVGID_1_" enable-background="new    " d="M37.7,69.7c-1.3-0.5-2.6-1-3.9-1.5l7.4,0.3c1.3,0.5,2.6,1.1,3.9,1.5
							c7.5,2.7,15,4.3,21.8,4.6l-7.4-0.3C52.7,74,45.2,72.4,37.7,69.7z"/>
					</defs>
					<clipPath id="SVGID_2_">
						<use xlink:href="#SVGID_1_"  overflow="visible"/>
					</clipPath>
					<g clip-path="url(#SVGID_2_)" enable-background="new    ">
						<path fill="#505085" d="M66.9,74.6l-7.4-0.3c-6.8-0.3-14.3-1.8-21.8-4.6c-1.3-0.5-2.6-1-3.9-1.5l7.4,0.3
							c1.3,0.5,2.6,1.1,3.9,1.5C52.6,72.7,60.1,74.3,66.9,74.6"/>
					</g>
				</g>
				<g enable-background="new    ">
					<defs>
						<path id="SVGID_3_" enable-background="new    " d="M66.9,74.6l-7.4-0.3c2.6,0.1,5,0,7.4-0.2c8.4-0.9,14-4.2,15.8-9.2
							c3.5-9.7-8.4-23.1-27.6-31.3c-1.3-0.5-2.6-1.1-3.9-1.5c-7.5-2.7-15-4.3-21.8-4.6l7.4,0.3c6.8,0.3,14.3,1.8,21.8,4.6
							c1.3,0.5,2.6,1,3.9,1.5c19.2,8.1,31,21.6,27.6,31.3c-1.8,5-7.4,8.2-15.8,9.2C71.9,74.6,69.5,74.7,66.9,74.6z"/>
					</defs>
					<clipPath id="SVGID_4_">
						<use xlink:href="#SVGID_3_"  overflow="visible"/>
					</clipPath>
					<g clip-path="url(#SVGID_4_)" enable-background="new    ">
						<path fill="#943B3B" d="M66.9,74.6l-7.4-0.3c0.2,0,0.3,0,0.5,0l7.4,0.3C67.2,74.6,67.1,74.6,66.9,74.6"/>
						<path fill="#8F3939" d="M67.4,74.6L60,74.3c2.4,0.1,4.7,0,6.9-0.3c1-0.1,2-0.3,2.9-0.4l7.4,0.3c-0.9,0.2-1.9,0.3-2.9,0.4
							C72.1,74.6,69.8,74.7,67.4,74.6"/>
						<path fill="#8A3737" d="M77.2,73.9l-7.4-0.3c2.2-0.4,4.2-1,5.9-1.8l7.4,0.3C81.4,72.9,79.4,73.5,77.2,73.9"/>
						<path fill="#853535" d="M83.1,72.1l-7.4-0.3c3.5-1.6,5.9-4,7-6.9c3.5-9.7-8.4-23.1-27.6-31.3c-1.3-0.5-2.6-1.1-3.9-1.5
							c-7.5-2.7-15-4.3-21.8-4.6l7.4,0.3c6.8,0.3,14.3,1.8,21.8,4.6c1.3,0.5,2.6,1,3.9,1.5c19.2,8.1,31,21.6,27.6,31.3
							C89,68.1,86.6,70.5,83.1,72.1"/>
					</g>
				</g>
				<g enable-background="new    ">
					<defs>
						<path id="SVGID_5_" enable-background="new    " d="M7,46.3c2.5,0.1,4.9,0.2,7.4,0.3c3.5,7.8,13.3,16.1,26.8,21.8l-7.4-0.3
							C20.3,62.5,10.5,54.1,7,46.3z"/>
					</defs>
					<clipPath id="SVGID_6_">
						<use xlink:href="#SVGID_5_"  overflow="visible"/>
					</clipPath>
					<g clip-path="url(#SVGID_6_)" enable-background="new    ">
						<path fill="#505085" d="M41.2,68.5l-7.4-0.3C14.6,60,2.8,46.6,6.2,36.9c1.1-2.9,3.5-5.3,7-6.9l7.4,0.3c-3.5,1.6-5.9,4-7,6.9
							C10.2,46.9,22,60.3,41.2,68.5"/>
					</g>
				</g>
				<g enable-background="new    ">
					<defs>
						<path id="SVGID_7_" enable-background="new    " d="M22,27.7c2.3-0.3,4.8-0.3,7.4-0.2l7.4,0.3c-2.6-0.1-5,0-7.4,0.2
							c-8.4,0.9-14,4.2-15.8,9.2c-1,2.9-0.7,6.1,0.8,9.4C12,46.5,9.5,46.4,7,46.3c-1.5-3.3-1.8-6.6-0.8-9.4
							C8,31.9,13.6,28.7,22,27.7z"/>
					</defs>
					<clipPath id="SVGID_8_">
						<use xlink:href="#SVGID_7_"  overflow="visible"/>
					</clipPath>
					<g clip-path="url(#SVGID_8_)" enable-background="new    ">
						<path fill="#505085" d="M41.2,68.5l-7.4-0.3C14.6,60,2.8,46.6,6.2,36.9c1.1-2.9,3.5-5.3,7-6.9l7.4,0.3c-3.5,1.6-5.9,4-7,6.9
							C10.2,46.9,22,60.3,41.2,68.5"/>
						<path fill="#53538A" d="M20.6,30.3L13.2,30c1.7-0.8,3.7-1.4,5.9-1.8l7.4,0.3C24.3,28.9,22.3,29.5,20.6,30.3"/>
						<path fill="#56568F" d="M26.5,28.5l-7.4-0.3C20,28,21,27.8,22,27.7c2.2-0.2,4.5-0.3,6.9-0.3l7.4,0.3c-2.4-0.1-4.7,0-6.9,0.3
							C28.4,28.2,27.5,28.3,26.5,28.5"/>
						<path fill="#595994" d="M36.3,27.8l-7.4-0.3c0.2,0,0.3,0,0.5,0l7.4,0.3C36.7,27.8,36.5,27.8,36.3,27.8"/>
					</g>
				</g>
				<g enable-background="new    ">
					<defs>
						<path id="SVGID_9_" enable-background="new    " d="M29.5,26.5l7.4,0.3c-2.6-0.1-5.1,0-7.5,0.2c-8.8,1-14.7,4.5-16.6,9.8
							l-7.4-0.3c1.9-5.3,7.8-8.8,16.6-9.8C24.3,26.5,26.8,26.4,29.5,26.5z"/>
					</defs>
					<clipPath id="SVGID_10_">
						<use xlink:href="#SVGID_9_"  overflow="visible"/>
					</clipPath>
					<g clip-path="url(#SVGID_10_)" enable-background="new    ">
						<path fill="#853535" d="M12.7,36.9l-7.4-0.3c1.1-3.2,3.7-5.7,7.5-7.5l7.4,0.3C16.4,31.1,13.9,33.7,12.7,36.9"/>
						<path fill="#8A3737" d="M20.2,29.4l-7.4-0.3c1.8-0.8,3.8-1.5,6.1-1.9l7.4,0.3C24.1,27.9,22,28.6,20.2,29.4"/>
						<path fill="#8F3939" d="M26.3,27.5l-7.4-0.3c1-0.2,2-0.3,3-0.5c2.2-0.3,4.6-0.3,7-0.3l7.4,0.3c-2.4-0.1-4.8,0-7,0.3
							C28.3,27.2,27.3,27.3,26.3,27.5"/>
						<path fill="#943B3B" d="M36.4,26.8l-7.4-0.3c0.2,0,0.3,0,0.5,0l7.4,0.3C36.7,26.8,36.5,26.8,36.4,26.8"/>
					</g>
				</g>
				<g>
					<path fill="#8989E5" d="M41.2,68.5c-19.2-8.1-31-21.6-27.6-31.3c1.8-5,7.4-8.2,15.8-9.2c8.5-1,18.9,0.6,29.2,4.3
						c1.3,0.5,2.6,1,3.9,1.5c19.2,8.1,31,21.6,27.6,31.3c-1.8,5-7.4,8.2-15.8,9.2c-8.5,1-18.9-0.6-29.2-4.3
						C43.8,69.5,42.5,69,41.2,68.5z"/>
				</g>
				<g enable-background="new    ">
					<defs>
						<path id="SVGID_11_" enable-background="new    " d="M66.9,75.6l-7.4-0.3c-6.9-0.3-14.5-1.9-22.1-4.6c-1.3-0.5-2.7-1-3.9-1.6
							C13.7,60.7,1.6,46.8,5.3,36.6l7.4,0.3C9.1,47.1,21.1,61,40.8,69.4c1.3,0.5,2.6,1.1,3.9,1.6C52.3,73.7,59.9,75.3,66.9,75.6z"/>
					</defs>
					<clipPath id="SVGID_12_">
						<use xlink:href="#SVGID_11_"  overflow="visible"/>
					</clipPath>
					<g clip-path="url(#SVGID_12_)" enable-background="new    ">
						<path fill="#853535" d="M66.9,75.6l-7.4-0.3c-6.9-0.3-14.5-1.9-22.1-4.6c-1.3-0.5-2.7-1-3.9-1.6C13.7,60.7,1.6,46.8,5.3,36.6
							l7.4,0.3C9.1,47.1,21.1,61,40.8,69.4c1.3,0.5,2.6,1.1,3.9,1.6C52.3,73.7,59.9,75.3,66.9,75.6"/>
					</g>
				</g>
				<g>
					<path fill="#E55B5B" d="M12.7,36.9c1.9-5.3,7.8-8.8,16.6-9.8c8.7-1,19.2,0.6,29.6,4.4c1.3,0.5,2.7,1,4,1.6
						C82.6,41.3,94.7,55.3,91,65.5c-1.9,5.3-7.8,8.8-16.6,9.8c-8.7,1-19.2-0.6-29.6-4.4c-1.3-0.5-2.7-1-3.9-1.6
						C21.1,61,9.1,47.1,12.7,36.9z M29.5,28c-8.4,0.9-14,4.2-15.8,9.2c-3.5,9.7,8.4,23.1,27.6,31.3c1.3,0.5,2.6,1.1,3.9,1.5
						c10.3,3.8,20.6,5.3,29.2,4.3c8.4-0.9,14-4.2,15.8-9.2c3.5-9.7-8.4-23.1-27.6-31.3c-1.3-0.5-2.6-1.1-3.9-1.5
						C48.4,28.6,38,27.1,29.5,28"/>
				</g>
			</g>
		</g>
	</g>
	<rect x="40.5" y="34.2" fill="none" width="28.5" height="29.3"/>
	<text transform="matrix(1 0 0 1 40.4971 61.5329)" font-family="'Menlo-Regular'" font-size="36">+</text>
</g>
</svg>
