<?xml version="1.0" encoding="utf-8"?>
<!-- Generator: Adobe Illustrator 18.1.1, SVG Export Plug-In . SVG Version: 6.00 Build 0)  -->
<svg version="1.1" id="Layer_1" xmlns="http://www.w3.org/2000/svg" xmlns:xlink="http://www.w3.org/1999/xlink" x="0px" y="0px"
	 width="300px" height="300px" viewBox="0 0 300 300" enable-background="new 0 0 300 300" xml:space="preserve">
<circle display="none" fill="#99FFCC" cx="140.531" cy="139.188" r="119.241"/>
<text transform="matrix(1 0 0 1 66.0137 166.9336)" fill="#FF6666" stroke="#9999FF" stroke-width="2" stroke-miterlimit="10" font-family="'MyriadPro-Regular'" font-size="184.945">f</text>
<text transform="matrix(1 0 0 1 104.8986 122.5313)" fill="#FF6666" stroke="#9999FF" stroke-width="2" stroke-miterlimit="10" font-family="'MyriadPro-Regular'" font-size="93.1893">u</text>
<text transform="matrix(1 0 0 1 128.2627 198.7168)" fill="#FF6666" stroke="#9999FF" stroke-width="2" stroke-miterlimit="10" font-family="'MyriadPro-Regular'" font-size="117.562">5</text>
<text transform="matrix(1 0 0 1 156.9785 130.9795)" fill="#FF6666" stroke="#9999FF" stroke-width="2" stroke-miterlimit="10" font-family="'MyriadPro-Regular'" font-size="139.0672">P</text>
<g>
	<g>
		<path fill="#FF6666" d="M222.891,183.649c18.605,3.161,31.605,19.717,32.199,38.302c0.646,20.205-11.383,38.423-28.806,47.936
			c-3.39,1.851-0.365,7.034,3.028,5.181c19.677-10.743,33.166-31.986,31.697-54.774c-1.317-20.426-15.911-38.928-36.523-42.43
			C220.709,177.222,219.086,183.003,222.891,183.649L222.891,183.649z"/>
	</g>
</g>
<g>
	<g>
		<path fill="#FF6666" d="M78.806,180.863c-20.653,3.509-35.149,22.001-36.523,42.43c-1.531,22.77,12.06,44.054,31.697,54.774
			c3.39,1.851,6.422-3.328,3.028-5.181c-17.422-9.512-29.451-27.733-28.806-47.936c0.594-18.586,13.593-35.141,32.199-38.302
			C84.199,186.004,82.589,180.221,78.806,180.863L78.806,180.863z"/>
	</g>
</g>
<g>
	<g>
		<path fill="#FF6666" d="M97.73,205.584c-0.091,8.806,7.091,15.869,15.937,15.41c3.842-0.199,3.865-6.201,0-6
			c-5.617,0.292-9.995-3.732-9.937-9.41C103.77,201.722,97.77,201.719,97.73,205.584L97.73,205.584z"/>
	</g>
</g>
<g>
	<g>
		<path fill="#FF6666" d="M211.013,205.584c0.059,5.678-4.316,9.702-9.937,9.41c-3.859-0.2-3.848,5.8,0,6
			c8.846,0.459,16.027-6.604,15.937-15.41C216.973,201.726,210.973,201.716,211.013,205.584L211.013,205.584z"/>
	</g>
</g>
<g>
	<g>
		<path fill="#FF6666" d="M109.392,235.274c-9.16,2.073-14.436,14.67-15.898,22.906c-0.67,3.776,5.111,5.396,5.786,1.595
			c1.077-6.066,4.748-17.141,11.707-18.716C114.752,240.208,113.158,234.422,109.392,235.274L109.392,235.274z"/>
	</g>
</g>
<g>
	<g>
		<path fill="#FF6666" d="M200.248,243.927c6.959,1.575,10.63,12.65,11.707,18.716c0.674,3.795,6.457,2.187,5.786-1.595
			c-1.463-8.243-6.734-20.833-15.898-22.906C198.083,237.291,196.478,243.074,200.248,243.927L200.248,243.927z"/>
	</g>
</g>
<ellipse cx="194.479" cy="68.746" rx="5.869" ry="5.637"/>
<g>
	<g>
		<path fill="#FF6666" d="M188.041,229.004c-0.568,13.298-21.32,16.648-31.226,16.662c-9.462,0.013-31.226-3.422-31.226-16.662
			c0-13.247,21.767-16.662,31.226-16.662C166.711,212.342,187.474,215.715,188.041,229.004c0.164,3.847,6.165,3.867,6,0
			c-0.529-12.39-13.577-18.926-24.237-21.265c-13.751-3.018-30.844-1.73-42.313,7.211c-8.342,6.503-10.614,17.121-3.129,25.293
			c9.539,10.414,26.71,12.595,39.953,10.944c12.109-1.51,29.108-7.689,29.726-22.182
			C194.206,225.143,188.205,225.151,188.041,229.004z"/>
	</g>
</g>
<g>
	<g>
		<path fill="#FF6666" d="M122.939,229.334c4.546,2.93,9.333,5.716,14.918,5.537c6.442-0.206,12.758-2.592,19.207-3.104
			c6.436-0.511,12.189,1.208,18.486,1.953c5.184,0.613,9.936-0.383,14.597-2.676c3.465-1.704,0.428-6.881-3.028-5.181
			c-9.466,4.656-20.002-0.863-30.055-0.096c-4.577,0.349-9.095,1.241-13.585,2.156c-3.536,0.721-6.807,1.362-10.32,0.152
			c-2.593-0.893-4.9-2.445-7.191-3.922C122.713,222.055,119.701,227.247,122.939,229.334L122.939,229.334z"/>
	</g>
</g>
<rect x="166.494" y="126.771" fill="#9999FF" width="1.937" height="0.035"/>
<rect x="165.545" y="124.859" fill="#9999FF" width="4" height="1.946"/>
<rect x="165.451" y="123.922" fill="#9999FF" width="3.266" height="1.656"/>
<rect x="164.612" y="124.03" fill="#FF6666" width="5.7" height="3.135"/>
<rect x="165.086" y="123.612" fill="#FF6666" width="4.541" height="1.368"/>
<rect x="166.494" y="123.308" fill="#FF6666" width="3.817" height="1.159"/>
<rect x="165.865" y="126.771" fill="#FF6666" width="3.572" height="3.225"/>
<rect x="144.002" y="120.761" fill="#FF6666" width="3.558" height="4.303"/>
<rect x="145.529" y="121.191" transform="matrix(0.9994 -0.0348 0.0348 0.9994 -4.1733 5.1526)" fill="#FF6666" width="0.504" height="2.297"/>
<rect x="147.405" y="121.02" transform="matrix(0.9962 -0.0869 0.0869 0.9962 -10.082 13.332)" fill="#FF6666" width="1.406" height="2.922"/>
<rect x="148.295" y="122.785" fill="#FF6666" width="0.047" height="0"/>
<rect x="143.45" y="121.307" fill="#FF6666" width="0.703" height="2.312"/>
<rect x="143.45" y="120.619" fill="#FF6666" width="0.552" height="1.016"/>
<rect x="110.414" y="78.423" fill="#FF6666" width="2.159" height="10.392"/>
<defs>
  <style type="text/css">
    @font-face {
      font-family: Gravity;
      src: url('../fonts/gravity/Gravity-Regular.otf');
    }
  </style>
</defs>
</svg>
